<?xml version="1.0" encoding="UTF-8"?>
<svg version="1.1" xmlns="http://www.w3.org/2000/svg" width="189" height="189">
<path d="M0 0 C0.88828491 -0.00563965 1.77656982 -0.0112793 2.69177246 -0.01708984 C4.15035172 -0.01101715 4.15035172 -0.01101715 5.63839722 -0.00482178 C6.66491394 -0.00832642 7.69143066 -0.01183105 8.74905396 -0.01544189 C12.15738617 -0.02427218 15.56551193 -0.01839937 18.97384644 -0.01165771 C21.35022013 -0.01300544 23.72659356 -0.01494686 26.10296631 -0.01745605 C31.0982016 -0.02041026 36.09336553 -0.01610548 41.08859253 -0.0067749 C47.44858153 0.00453318 53.80840011 -0.00188264 60.16838264 -0.01391983 C65.08619428 -0.02120478 70.0039667 -0.01881882 74.92177963 -0.01366425 C77.26340633 -0.01234148 79.60503673 -0.01392661 81.94665909 -0.01862335 C129.87126333 -0.09355145 129.87126333 -0.09355145 148.40353394 16.75396729 C149.14603394 17.57896729 149.88853394 18.40396729 150.65353394 19.25396729 C151.12146362 19.71802979 151.58939331 20.18209229 152.07150269 20.66021729 C163.1548148 32.28487369 165.25661229 47.46444056 164.89962769 62.78131104 C164.1742201 79.81214886 156.80541861 92.83772642 144.49728394 104.25396729 C131.06805847 115.54230173 114.26277879 117.4171546 97.39816284 117.38336182 C95.76481995 117.3859903 95.76481995 117.3859903 94.09848022 117.38867188 C90.52566907 117.39304727 86.95290802 117.39016888 83.38009644 117.38677979 C80.88907868 117.38745377 78.39806099 117.38842459 75.90704346 117.38967896 C70.70062633 117.39114983 65.4942264 117.38901989 60.28781128 117.38433838 C54.93753849 117.37976242 49.58730202 117.37951164 44.23703003 117.38433838 C37.76871507 117.39012336 31.30042039 117.39105009 24.83210373 117.38778305 C22.36726247 117.38711506 19.90242036 117.38793774 17.43758011 117.3902626 C14.00254247 117.39279315 10.56757057 117.38894358 7.13253784 117.38336182 C6.11018036 117.38538605 5.08782288 117.38741028 4.03448486 117.38949585 C3.10098206 117.38667603 2.16747925 117.3838562 1.20568848 117.38095093 C0.39421671 117.3805739 -0.41725506 117.38019688 -1.25331688 117.37980843 C-3.34646606 117.25396729 -3.34646606 117.25396729 -6.34646606 116.25396729 C-7.53471078 113.87747786 -7.47730459 112.42703891 -7.48690796 109.77496338 C-7.4926181 108.83271912 -7.49832825 107.89047485 -7.50421143 106.91967773 C-7.50532928 105.88272766 -7.50644714 104.84577759 -7.50759888 103.77740479 C-7.51256378 102.68792542 -7.51752869 101.59844604 -7.52264404 100.47595215 C-7.53728868 96.86028419 -7.5440706 93.24466007 -7.54959106 89.62896729 C-7.55533947 87.1255493 -7.56109724 84.62213133 -7.56686401 82.11871338 C-7.57603455 77.53818679 -7.58233299 72.95767286 -7.58536077 68.37713814 C-7.58984609 61.62826972 -7.60741657 54.87960338 -7.63636136 48.13079643 C-7.66054297 42.29060011 -7.66830306 36.45047154 -7.67003632 30.61022949 C-7.67307342 28.12222187 -7.68113722 25.63421531 -7.6942215 23.14624023 C-7.71118135 19.67417866 -7.70942663 16.20261539 -7.70291138 12.73052979 C-7.71212616 11.69357971 -7.72134094 10.65662964 -7.73083496 9.58825684 C-7.72248123 8.17489044 -7.72248123 8.17489044 -7.71395874 6.73297119 C-7.7154253 5.9114859 -7.71689186 5.09000061 -7.71840286 4.24362183 C-7.59566372 3.58703583 -7.47292458 2.93044983 -7.34646606 2.25396729 C-4.22490854 0.17292894 -3.54320045 0.00346269 0 0 Z M90.65353394 30.25396729 C90.55465602 31.99779264 90.52554362 33.74562272 90.5241394 35.49224854 C90.52098724 36.61010742 90.51783508 37.72796631 90.5145874 38.87969971 C90.51661163 40.09633301 90.51863586 41.31296631 90.52072144 42.56646729 C90.51976471 43.80565918 90.51880798 45.04485107 90.51782227 46.32159424 C90.5171402 48.94785009 90.51849856 51.57401362 90.52316284 54.20025635 C90.52886013 57.57325442 90.52558091 60.94617294 90.51959038 64.31916809 C90.51511623 67.52660405 90.51824511 70.73403029 90.52072144 73.94146729 C90.5186972 75.15810059 90.51667297 76.37473389 90.5145874 77.62823486 C90.51773956 78.74609375 90.52089172 79.86395264 90.5241394 81.01568604 C90.524935 82.0052832 90.52573059 82.99488037 90.52655029 84.01446533 C90.40252546 86.22493978 90.40252546 86.22493978 91.65353394 87.25396729 C107.99588033 88.21919076 107.99588033 88.21919076 122.46603394 81.56646729 C127.43049317 76.95908052 130.42557266 70.54632604 130.89181519 63.81256104 C131.15571694 54.00878999 130.41212507 46.0005594 124.34103394 37.87896729 C118.96075269 32.62380886 113.95415289 30.67528857 106.65353394 30.00396729 C105.644198 29.88795166 105.644198 29.88795166 104.61447144 29.76959229 C97.19523468 28.43610633 97.19523468 28.43610633 90.65353394 30.25396729 Z " fill="#013F89" transform="translate(16.346466064453125,21.74603271484375)"/>
<path d="M0 0 C1.29901245 0.02054443 2.5980249 0.04108887 3.93640137 0.06225586 C5.31673804 0.09413075 6.69706855 0.12627375 8.07739258 0.15869141 C9.96004822 0.19119995 9.96004822 0.19119995 11.8807373 0.22436523 C16.57801292 0.3084854 21.27495523 0.41045203 25.97192383 0.51025391 C36.47004883 0.71650391 46.96817383 0.92275391 57.78442383 1.13525391 C57.78442383 39.08525391 57.78442383 77.03525391 57.78442383 116.13525391 C36.00442383 116.13525391 14.22442383 116.13525391 -8.21557617 116.13525391 C-9.40382088 113.75876448 -9.34641469 112.30832553 -9.35601807 109.65625 C-9.36172821 108.71400574 -9.36743835 107.77176147 -9.37332153 106.80096436 C-9.37443939 105.76401428 -9.37555725 104.72706421 -9.37670898 103.65869141 C-9.38167389 102.56921204 -9.38663879 101.47973267 -9.39175415 100.35723877 C-9.40639878 96.74157081 -9.4131807 93.12594669 -9.41870117 89.51025391 C-9.42444958 87.00683592 -9.43020734 84.50341795 -9.43597412 82 C-9.44514466 77.41947342 -9.45144309 72.83895948 -9.45447087 68.25842476 C-9.4589562 61.50955634 -9.47652668 54.76089 -9.50547147 48.01208305 C-9.52965308 42.17188673 -9.53741317 36.33175816 -9.53914642 30.49151611 C-9.54218353 28.00350849 -9.55024733 25.51550193 -9.5633316 23.02752686 C-9.58029145 19.55546528 -9.57853674 16.08390201 -9.57202148 12.61181641 C-9.58123627 11.57486633 -9.59045105 10.53791626 -9.59994507 9.46954346 C-9.59159134 8.05617706 -9.59159134 8.05617706 -9.58306885 6.61425781 C-9.58453541 5.79277252 -9.58600197 4.97128723 -9.58751297 4.12490845 C-9.46477383 3.46832245 -9.34203468 2.81173645 -9.21557617 2.13525391 C-5.64767062 -0.24334979 -4.2234107 -0.08297467 0 0 Z " fill="#00B1D5" transform="translate(18.215576171875,21.86474609375)"/>
<path d="M0 0 C1.69876785 0.03330917 1.69876785 0.03330917 3.43185425 0.06729126 C5.3805542 0.09810791 5.3805542 0.09810791 7.36862183 0.12954712 C8.75412605 0.16142504 10.1396242 0.19356813 11.52511597 0.22598267 C12.78122681 0.24765503 14.03733765 0.26932739 15.33151245 0.29165649 C20.03948734 0.37587432 24.74713217 0.47778992 29.45480347 0.57754517 C45.23292847 0.88692017 45.23292847 0.88692017 61.32980347 1.20254517 C61.32980347 39.15254517 61.32980347 77.10254517 61.32980347 116.20254517 C31.32980347 116.20254517 31.32980347 116.20254517 27.32980347 114.20254517 C27.65980347 77.24254517 27.98980347 40.28254517 28.32980347 2.20254517 C17.43980347 2.20254517 6.54980347 2.20254517 -4.67019653 2.20254517 C-2.67019653 0.20254517 -2.67019653 0.20254517 0 0 Z " fill="#0093C5" transform="translate(14.670196533203125,21.797454833984375)"/>
</svg>
